Coordinates
version=1
nRows=13
nColumns=63
inDegrees=yes

Units are S.I. units (second, meters, Newtons, ...)
If the header above contains a line with 'inDegrees', this indicates whether rotational values are in degrees (yes) or radians (no).

endheader
time	pelvis_tilt	pelvis_list	pelvis_rotation	pelvis_tx	pelvis_ty	pelvis_tz	hip_flexion_r	hip_adduction_r	hip_rotation_r	knee_angle_r	knee_angle_r_beta	ankle_angle_r	subtalar_angle_r	mtp_angle_r	hip_flexion_l	hip_adduction_l	hip_rotation_l	knee_angle_l	knee_angle_l_beta	ankle_angle_l	subtalar_angle_l	mtp_angle_l	L5_S1_Flex_Ext	L5_S1_Lat_Bending	L5_S1_axial_rotation	L4_L5_Flex_Ext	L4_L5_Lat_Bending	L4_L5_axial_rotation	L3_L4_Flex_Ext	L3_L4_Lat_Bending	L3_L4_axial_rotation	L2_L3_Flex_Ext	L2_L3_Lat_Bending	L2_L3_axial_rotation	L1_L2_Flex_Ext	L1_L2_Lat_Bending	L1_L2_axial_rotation	L1_T12_Flex_Ext	L1_T12_Lat_Bending	L1_T12_axial_rotation	Abs_r3	Abs_r2	Abs_r1	Abs_t1	Abs_t2	neck_flexion	neck_bending	neck_rotation	arm_flex_r	arm_add_r	arm_rot_r	elbow_flex_r	pro_sup_r	wrist_flex_r	wrist_dev_r	arm_flex_l	arm_add_l	arm_rot_l	elbow_flex_l	pro_sup_l	wrist_flex_l	wrist_dev_l
0.000000	-0.588768	-4.057288	85.562737	0.196344	0.855548	0.674586	4.242684	-1.673118	2.892058	8.530658	0.148888	26.447477	11.277934	0.000000	5.291407	0.926848	6.331699	10.384869	0.181250	24.346945	-7.821816	0.000000	0.113978	0.201641	0.485543	0.211669	0.268182	0.515889	0.187255	0.490269	0.515889	0.130266	0.490269	0.424850	0.105840	0.411186	0.394503	0.065127	0.312342	0.364157	0.814135	2.281001	2.700442	0.000000	0.000000	24.321434	0.215410	1.335059	32.481884	-12.107462	78.178059	52.215133	89.178595	2.893782	3.577787	24.807144	-7.956134	52.299265	50.708383	88.206137	12.031060	21.227747
0.016667	-0.668257	-4.060121	85.663741	0.196329	0.855392	0.674546	4.229156	-1.776407	2.519343	8.388306	0.146404	27.119155	11.960317	0.000000	4.932545	1.007902	8.190265	9.419316	0.164398	23.594006	-9.492000	0.000000	0.117813	0.194930	0.448774	0.218791	0.259257	0.476822	0.193556	0.473953	0.476822	0.134649	0.473953	0.392677	0.109402	0.397502	0.364629	0.067319	0.301947	0.336580	0.841530	2.205089	2.495945	0.000000	0.000000	24.795093	0.051390	1.209116	33.744629	-11.640749	82.375270	51.418641	89.264846	-0.426501	1.014911	24.999790	-8.181503	52.883930	50.833546	88.316684	13.028955	21.938363
0.033333	-0.734540	-4.050280	85.745460	0.196317	0.855285	0.674537	4.210184	-1.861012	2.229914	8.253589	0.144052	27.668258	12.517261	0.000000	4.643104	1.077831	9.698184	8.658273	0.151115	22.981672	-10.852503	0.000000	0.119434	0.189414	0.413491	0.221802	0.251921	0.439335	0.196219	0.460541	0.439335	0.136502	0.460541	0.361805	0.110907	0.386253	0.335962	0.068245	0.293402	0.310119	0.853108	2.142689	2.299715	0.000000	0.000000	25.110044	-0.026292	1.207571	34.759722	-11.243821	85.723296	50.772640	89.333265	-3.052351	-0.975116	25.147809	-8.381853	53.351486	50.939675	88.415113	13.866122	22.559347
0.050000	-0.788763	-4.029519	85.809346	0.196308	0.855222	0.674555	4.186943	-1.928672	2.015278	8.127637	0.141854	28.104966	12.960166	0.000000	4.417851	1.137573	10.883350	8.085177	0.141113	22.499431	-11.928105	0.000000	0.119064	0.184947	0.379945	0.221114	0.245979	0.403692	0.195611	0.449679	0.403692	0.136079	0.449679	0.332452	0.110563	0.377143	0.308706	0.068033	0.286482	0.284959	0.850465	2.092154	2.113142	0.000000	0.000000	25.282592	-0.029440	1.313243	35.549281	-10.911455	88.298212	50.264244	89.385467	-5.048108	-2.446966	25.256676	-8.558482	53.714542	51.027816	88.502102	14.555103	23.096323
0.066667	-0.832071	-3.999593	85.856850	0.196303	0.855196	0.674600	4.160612	-1.981125	1.866941	8.011578	0.139828	28.439459	13.300435	0.000000	4.251553	1.188072	11.773660	7.683467	0.134102	22.136768	-12.743585	0.000000	0.116926	0.181383	0.348385	0.217144	0.241239	0.370159	0.192098	0.441013	0.370159	0.133635	0.441013	0.304837	0.108578	0.369875	0.283063	0.066812	0.280961	0.261289	0.835193	2.051835	1.937613	0.000000	0.000000	25.329039	0.030144	1.508951	36.135429	-10.638426	90.176093	49.880565	89.423069	-6.478110	-3.455309	25.331870	-8.712690	53.985708	51.099015	88.578328	15.108445	23.554915
0.083333	-0.865611	-3.962255	85.889425	0.196302	0.855201	0.674668	4.132367	-2.020109	1.776411	7.906542	0.137995	28.681919	13.549467	0.000000	4.138980	1.230266	12.397006	7.436581	0.129793	21.883172	-13.323722	0.000000	0.113244	0.178576	0.319060	0.210305	0.237506	0.339002	0.186048	0.434189	0.339002	0.129426	0.434189	0.279178	0.105158	0.364152	0.259236	0.064707	0.276614	0.239295	0.808888	2.020086	1.774518	0.000000	0.000000	25.265689	0.140655	1.777514	36.540285	-10.419511	91.433016	49.608717	89.447687	-7.406695	-4.054816	25.378866	-8.845775	54.177590	51.154318	88.644468	15.538691	23.940746
0.100000	-0.890530	-3.919260	85.908523	0.196305	0.855233	0.674756	4.103387	-2.047362	1.735194	7.813659	0.136374	28.842525	13.718665	0.000000	4.074897	1.265098	12.781285	7.327958	0.127897	21.728129	-13.693296	0.000000	0.108239	0.176381	0.292221	0.201011	0.234587	0.310484	0.177826	0.428853	0.310484	0.123707	0.428853	0.255693	0.100511	0.359676	0.237429	0.061848	0.273214	0.219166	0.773142	1.995258	1.625244	0.000000	0.000000	25.108845	0.290290	2.101750	36.785970	-10.249485	92.145055	49.435811	89.460937	-7.898201	-4.300158	25.403142	-8.959036	54.302798	51.194770	88.701200	15.858387	24.259439
0.116667	-0.907971	-3.872361	85.915594	0.196312	0.855286	0.674862	4.074849	-2.064623	1.734797	7.734057	0.134985	28.931458	13.819430	0.000000	4.054072	1.293508	12.954390	7.341036	0.128125	21.661125	-13.877087	0.000000	0.102137	0.174652	0.268116	0.189678	0.232288	0.284873	0.167800	0.424650	0.284873	0.116732	0.424650	0.234601	0.094844	0.356151	0.217844	0.058361	0.270537	0.201087	0.729551	1.975704	1.491180	0.000000	0.000000	24.874812	0.467245	2.464478	36.894605	-10.123125	92.388287	49.348962	89.464436	-8.016967	-4.246005	25.410175	-9.053773	54.373940	51.221417	88.749200	16.080076	24.516620
0.133333	-0.919083	-3.823314	85.912091	0.196322	0.855353	0.674985	4.047930	-2.073630	1.766727	7.668866	0.133847	28.958899	13.863164	0.000000	4.071274	1.316436	12.944217	7.459254	0.130189	21.671648	-13.899873	0.000000	0.095159	0.173244	0.246996	0.176719	0.230415	0.262433	0.156336	0.421226	0.262433	0.108757	0.421226	0.216121	0.088364	0.353280	0.200684	0.054374	0.268356	0.185247	0.679708	1.959775	1.373716	0.000000	0.000000	24.579893	0.659716	2.848518	36.888310	-10.035207	92.238787	49.335281	89.459799	-7.827330	-3.947028	25.405441	-9.131283	54.403624	51.235304	88.789147	16.216304	24.717910
0.150000	-0.925011	-3.773871	85.899465	0.196338	0.855430	0.675120	4.023808	-2.076121	1.822491	7.619216	0.132980	28.935027	13.861268	0.000000	4.121269	1.334825	12.778660	7.666051	0.133798	21.749185	-13.786435	0.000000	0.087528	0.172011	0.229110	0.162549	0.228775	0.243429	0.143800	0.418228	0.243429	0.100036	0.418228	0.200471	0.081279	0.350765	0.186152	0.050014	0.266445	0.171832	0.625206	1.945825	1.274239	0.000000	0.000000	24.240392	0.855900	3.236688	36.789206	-9.980507	91.772631	49.381882	89.448642	-7.393630	-3.457899	25.394418	-9.192867	54.404460	51.237479	88.821717	16.279615	24.868935
0.166667	-0.926900	-3.725788	85.879169	0.196358	0.855510	0.675266	4.003661	-2.073834	1.893596	7.586235	0.132405	28.870024	13.825142	0.000000	4.198825	1.349614	12.485613	7.944864	0.138664	21.883223	-13.561551	0.000000	0.079469	0.170807	0.214707	0.147582	0.227174	0.228127	0.130560	0.415301	0.228127	0.090825	0.415301	0.187869	0.073795	0.348310	0.174450	0.045409	0.264580	0.161031	0.567641	1.932205	1.194138	0.000000	0.000000	23.872611	1.043994	3.611807	36.619413	-9.953800	91.065894	49.475877	89.432582	-6.780204	-2.833287	25.382582	-9.239822	54.389054	51.228986	88.847587	16.282554	24.975317
0.183333	-0.924953	-3.652722	85.844876	0.196429	0.855615	0.675384	3.954617	-2.067850	1.955081	7.556307	0.131882	28.838370	13.832288	0.000000	4.247468	1.360662	12.132163	8.243454	0.143875	22.073237	-13.323605	0.000000	0.069991	0.168435	0.204039	0.129981	0.224018	0.216791	0.114988	0.409533	0.216791	0.079993	0.409533	0.178534	0.064994	0.343472	0.165781	0.039993	0.260906	0.153029	0.499940	1.905369	1.134801	0.000000	0.000000	23.512279	1.192539	3.837217	36.460145	-9.901674	90.462791	49.502954	89.417542	-6.318001	-2.404162	25.384863	-9.261112	54.379706	51.173829	88.860657	16.390805	25.164122
0.200000	-0.933150	-3.631729	85.819741	0.196483	0.855640	0.675550	3.965964	-2.067862	2.057619	7.569802	0.132118	28.755808	13.726216	0.000000	4.382606	1.369206	11.574747	8.611364	0.150297	22.350350	-12.767650	0.000000	0.066017	0.164434	0.201077	0.122601	0.218697	0.213644	0.108460	0.399805	0.213644	0.075451	0.399805	0.175942	0.061304	0.335314	0.163375	0.037722	0.254708	0.150807	0.471556	1.860110	1.118328	0.000000	0.000000	23.166348	1.291530	4.039335	36.241872	-9.904590	89.612924	49.643120	89.401158	-5.505219	-1.617782	25.432667	-9.277557	54.490553	51.111214	88.877388	16.261991	25.138237
